<svg viewBox="0 0 512 512" xmlns="http://www.w3.org/2000/svg">
  <defs>
    <linearGradient id="bg" x1="70" y1="40" x2="445" y2="470" gradientUnits="userSpaceOnUse">
      <stop offset="0" stop-color="#38bdf8"></stop>
      <stop offset="0.45" stop-color="#0ea5e9"></stop>
      <stop offset="1" stop-color="#1d4ed8"></stop>
    </linearGradient>

    <linearGradient id="path" x1="120" y1="320" x2="390" y2="320" gradientUnits="userSpaceOnUse">
      <stop offset="0" stop-color="#ffffff" stop-opacity="0.95"></stop>
      <stop offset="1" stop-color="#dbeafe" stop-opacity="0.95"></stop>
    </linearGradient>

    <filter id="shadow" x="-20%" y="-20%" width="140%" height="140%">
      <feDropShadow dx="0" dy="16" stdDeviation="18" flood-color="#0f172a" flood-opacity="0.22"></feDropShadow>
    </filter>
  </defs>

  <rect x="6" y="6" width="500" height="500" rx="112" fill="url(#bg)"></rect>

  <circle cx="256" cy="256" r="176" fill="none" stroke="#ffffff" stroke-opacity="0.18" stroke-width="18"></circle>
  <circle cx="256" cy="256" r="128" fill="none" stroke="#ffffff" stroke-opacity="0.12" stroke-width="12"></circle>

  <g filter="url(#shadow)">
    <path d="M139 336c36-28 72-42 110-42 51 0 70 30 113 30 20 0 38-6 57-18" fill="none" stroke="url(#path)" stroke-width="30" stroke-linecap="round"></path>

    <path d="M167 375c42-30 80-43 122-40 36 3 63 20 96 10" fill="none" stroke="#bfdbfe" stroke-opacity="0.85" stroke-width="14" stroke-linecap="round"></path>

    <circle cx="256" cy="149" r="38" fill="#ffffff"></circle>

    <path d="M255 202c-31 3-57 26-64 58l-5 25" fill="none" stroke="#ffffff" stroke-width="31" stroke-linecap="round" stroke-linejoin="round"></path>

    <path d="M257 205l47 52 42-17" fill="none" stroke="#ffffff" stroke-width="31" stroke-linecap="round" stroke-linejoin="round"></path>

    <path d="M246 273l-25 70" fill="none" stroke="#ffffff" stroke-width="32" stroke-linecap="round"></path>

    <path d="M270 276l57 66" fill="none" stroke="#ffffff" stroke-width="32" stroke-linecap="round"></path>
  </g>

  <text x="256" y="442" text-anchor="middle" font-family="Arial, Helvetica, sans-serif" font-size="46" font-weight="800" letter-spacing="2" fill="#ffffff">
    PASO LIBRE
  </text>
</svg>